<?xml version="1.0" standalone="no"?>
<!DOCTYPE svg PUBLIC "-//W3C//DTD SVG 20010904//EN"
 "http://www.w3.org/TR/2001/REC-SVG-20010904/DTD/svg10.dtd">
<svg version="1.0" xmlns="http://www.w3.org/2000/svg"
 width="225.000000pt" height="225.000000pt" viewBox="0 0 225.000000 225.000000"
 preserveAspectRatio="xMidYMid meet">
<metadata>
Created by potrace 1.11, written by Peter Selinger 2001-2013
</metadata>
<g transform="translate(0.000000,225.000000) scale(0.100000,-0.100000)"
fill="#000000" stroke="none">
<path d="M895 2176 c-28 -7 -87 -34 -133 -60 -91 -53 -104 -74 -83 -133 7 -19
11 -36 9 -37 -1 -2 -50 2 -108 7 -121 11 -214 -5 -311 -54 -67 -33 -94 -68
-85 -113 4 -17 11 -74 16 -126 5 -52 15 -158 23 -235 14 -135 9 -407 -7 -434
-4 -6 -11 -56 -16 -112 -7 -91 -11 -104 -36 -130 -25 -26 -28 -39 -37 -139
-10 -100 -9 -113 9 -145 10 -19 23 -36 29 -36 5 -1 15 -2 20 -3 6 0 21 -11 35
-24 13 -12 34 -22 47 -22 23 0 29 -2 91 -33 19 -9 41 -17 50 -17 9 0 26 -7 36
-15 11 -8 30 -15 43 -15 13 0 23 -5 23 -10 0 -6 16 -10 36 -8 27 2 40 -3 53
-21 13 -17 23 -21 43 -16 20 5 30 1 46 -19 11 -14 27 -26 36 -26 9 0 26 -10
37 -21 16 -16 29 -20 54 -16 24 4 35 1 39 -9 4 -10 13 -13 27 -9 14 5 25 1 35
-12 11 -13 17 -14 20 -5 8 17 34 15 34 -2 0 -16 50 -26 130 -26 215 -2 246 0
326 20 90 23 165 62 203 106 30 34 76 166 67 191 -9 22 3 36 20 22 10 -8 52
-10 141 -6 204 8 260 40 306 175 27 78 27 101 2 132 -6 8 -20 36 -29 63 -20
54 -75 106 -197 190 -68 46 -121 85 -358 267 -77 58 -80 67 -69 196 12 140 4
421 -14 502 -16 70 -62 128 -130 163 -45 23 -48 23 -48 3 0 -8 -4 -13 -10 -9
-5 3 -7 12 -4 20 4 10 -3 16 -23 21 -15 3 -44 10 -63 15 -62 16 -270 19 -325
5z m338 -58 c14 -7 32 -23 38 -36 8 -14 15 -18 20 -11 4 7 21 -3 48 -30 22
-22 44 -41 49 -41 4 0 12 -11 18 -25 10 -20 9 -27 -5 -40 -10 -8 -29 -15 -42
-15 -13 0 -40 -4 -59 -10 -25 -7 -45 -6 -70 2 -19 7 -42 11 -51 10 -8 -2 -32
9 -52 22 -20 14 -39 21 -42 16 -8 -13 13 -50 27 -50 6 0 9 -2 7 -4 -8 -8 -204
12 -234 24 -16 6 -32 11 -35 11 -5 0 -90 47 -99 55 -6 6 52 54 65 54 6 0 33 9
58 21 26 11 68 23 93 26 25 2 56 8 67 13 24 9 87 4 95 -8 3 -4 20 -9 36 -10
17 -2 34 -8 40 -13 14 -14 35 -11 35 7 0 8 -5 12 -10 9 -6 -3 -17 0 -25 9 -28
28 -16 34 28 14z m-590 -206 c-4 -18 36 -21 47 -4 9 16 11 16 20 0 8 -12 24
-18 50 -18 21 0 42 -4 45 -10 3 -5 14 -10 23 -10 36 -1 115 -96 110 -133 -5
-36 -72 -49 -253 -50 -199 -2 -346 22 -401 66 -26 20 -24 40 4 30 15 -6 15 -5
4 10 -12 14 -10 19 20 37 18 11 40 20 49 20 9 0 22 7 29 15 10 11 25 14 56 11
39 -5 89 7 104 24 7 9 73 28 85 25 6 -1 9 -7 8 -13z m522 -2 c3 -5 -1 -10 -9
-10 -9 0 -16 5 -16 10 0 6 4 10 9 10 6 0 13 -4 16 -10z"/>
</g>
</svg>
